<svg xmlns="http://www.w3.org/2000/svg" viewBox="0 0 40 20">
  <path d="M29.074 4.02a5.19 5.19 0 0 1 3.094 1.255 5.6 5.6 0 0 1 0 8.051 5.19 5.19 0 0 1-3.094 1.255c-1.47 0-1.938-.263-3.49-1.135-.326-.183-.695-.39-1.1-.607a10.842 10.842 0 0 0-11.07 0c-.4.217-.772.423-1.1.607-1.552.872-2.02 1.135-3.489 1.135a5.192 5.192 0 0 1-3.1-1.255 5.6 5.6 0 0 1 0-8.051 5.192 5.192 0 0 1 3.1-1.255c1.469 0 1.937.263 3.489 1.135.326.183.695.39 1.1.607a10.845 10.845 0 0 0 11.07 0c.4-.217.772-.424 1.1-.607 1.552-.872 2.021-1.135 3.49-1.135m0-4.02c-2.993 0-4.131.95-6.5 2.222a6.845 6.845 0 0 1-7.25 0C12.958.95 11.824 0 8.824 0a9.313 9.313 0 0 0 0 18.6c2.992 0 4.13-.951 6.5-2.223a6.849 6.849 0 0 1 7.25 0c2.366 1.272 3.5 2.223 6.5 2.223a9.313 9.313 0 0 0 0-18.6Z" fill="#fff"/>
</svg>